<?xml version="1.0" encoding="UTF-8" standalone="no"?>
<svg
   xmlns:dc="http://purl.org/dc/elements/1.1/"
   xmlns:cc="http://creativecommons.org/ns#"
   xmlns:rdf="http://www.w3.org/1999/02/22-rdf-syntax-ns#"
   xmlns:svg="http://www.w3.org/2000/svg"
   xmlns="http://www.w3.org/2000/svg"
   xmlns:xlink="http://www.w3.org/1999/xlink"
   xmlns:sodipodi="http://sodipodi.sourceforge.net/DTD/sodipodi-0.dtd"
   xmlns:inkscape="http://www.inkscape.org/namespaces/inkscape"
   width="65"
   height="65"
   version="1.1"
   viewBox="0 0 65 65"
   id="svg87"
   sodipodi:docname="default-folder.svg"
   inkscape:export-filename="/home/tiger/Documentos/path85.png"
   inkscape:export-xdpi="96"
   inkscape:export-ydpi="96"
   inkscape:version="0.92.5 (2060ec1f9f, 2020-04-08)">
  <metadata
     id="metadata73">
    <rdf:RDF>
      <cc:Work
         rdf:about="">
        <dc:format>image/svg+xml</dc:format>
        <dc:type
           rdf:resource="http://purl.org/dc/dcmitype/StillImage" />
      </cc:Work>
    </rdf:RDF>
  </metadata>
  <sodipodi:namedview
     id="namedview89"
     pagecolor="#505050"
     bordercolor="#eeeeee"
     borderopacity="1"
     inkscape:pageshadow="0"
     inkscape:pageopacity="0"
     inkscape:pagecheckerboard="0"
     showgrid="false"
     inkscape:zoom="5.7507932"
     inkscape:cx="33.99531"
     inkscape:cy="22.866411"
     inkscape:window-width="1366"
     inkscape:window-height="699"
     inkscape:window-x="0"
     inkscape:window-y="0"
     inkscape:window-maximized="1"
     inkscape:current-layer="g894"
     showguides="false"
     height="84px" />
  <defs
     id="defs73">
    <linearGradient
       id="linearGradient15958">
      <stop
         stop-color="#d9dadd"
         offset="0"
         id="stop15950" />
      <stop
         stop-color="#f7f7f8"
         offset="1"
         id="stop15956"
         style="stop-color:#ffffff;stop-opacity:1" />
    </linearGradient>
    <linearGradient
       inkscape:collect="always"
       id="linearGradient12505">
      <stop
         style="stop-color:#ececec;stop-opacity:1"
         offset="0"
         id="stop12501" />
      <stop
         style="stop-color:#7838bd;stop-opacity:1"
         offset="1"
         id="stop12503" />
    </linearGradient>
    <linearGradient
       inkscape:collect="always"
       id="linearGradient885">
      <stop
         style="stop-color:#d70df0;stop-opacity:1"
         offset="0"
         id="stop881" />
      <stop
         style="stop-color:#7838bd;stop-opacity:1"
         offset="1"
         id="stop883" />
    </linearGradient>
    <linearGradient
       id="linearGradient198">
      <stop
         stop-color="#d9dadd"
         offset="0"
         id="stop190"
         style="stop-color:#4d4d4d;stop-opacity:1" />
      <stop
         stop-color="#e3e4e6"
         offset=".25424"
         id="stop192"
         style="stop-color:#cccccc;stop-opacity:1" />
      <stop
         stop-color="#d8dbde"
         offset=".74364"
         id="stop194"
         style="stop-color:#cccccc;stop-opacity:1" />
      <stop
         stop-color="#f7f7f8"
         offset="1"
         id="stop196"
         style="stop-color:#999999;stop-opacity:1" />
    </linearGradient>
    <pattern
       id="pattern912"
       patternTransform="matrix(.092164 0 0 .092164 8.9239 45.459)"
       xlink:href="#b" />
    <pattern
       id="pattern909"
       patternTransform="matrix(.092164 0 0 .092164 25.852 49.59)"
       xlink:href="#c" />
    <linearGradient
       id="a">
      <stop
         stop-color="#d9dadd"
         offset="0"
         id="stop11" />
      <stop
         stop-color="#e3e4e6"
         offset=".25424"
         id="stop13" />
      <stop
         stop-color="#d8dbde"
         offset=".74364"
         id="stop15" />
      <stop
         stop-color="#f7f7f8"
         offset="1"
         id="stop17" />
    </linearGradient>
    <clipPath
       id="p">
      <path
         d="m 45.102,268 3.7755,30.736 c -5e-6,2.8428 5.3769,5.1475 12.01,5.1475 6.6332,0 12.011,-2.3047 12.011,-5.1475 L 76.6404,268 c -7.94e-4,2.1771 -7.0606,3.9419 -15.769,3.9419 -8.7084,2e-5 -15.768,-1.7648 -15.769,-3.9419 z m 31.538,0 c 0,-0.0854 -0.01476,-0.17017 -0.03617,-0.25425 0.02299,0.0846 0.03506,0.16942 0.03617,0.25425 z"
         color="#000000"
         fill="#ffffff"
         opacity="0.691"
         id="path20" />
    </clipPath>
    <filter
       id="k"
       x="-0.084442155"
       y="-0.1872619"
       width="1.1688843"
       height="1.3745238"
       color-interpolation-filters="sRGB">
      <feGaussianBlur
         stdDeviation="1.0791004"
         id="feGaussianBlur23" />
    </filter>
    <clipPath
       id="n">
      <path
         d="m 45.102,268 3.7755,30.736 c -5e-6,2.8428 5.3769,5.1475 12.01,5.1475 6.6332,0 12.011,-2.3047 12.011,-5.1475 L 76.6404,268 c -7.94e-4,2.1771 -7.0606,3.9419 -15.769,3.9419 -8.7084,2e-5 -15.768,-1.7648 -15.769,-3.9419 z m 31.538,0 c 0,-0.0854 -0.01476,-0.17017 -0.03617,-0.25425 0.02299,0.0846 0.03506,0.16942 0.03617,0.25425 z"
         color="#000000"
         fill="#ffffff"
         opacity="0.691"
         id="path26" />
    </clipPath>
    <filter
       id="i"
       x="-0.36659388"
       y="-0.59061406"
       width="1.7331878"
       height="2.1812281"
       color-interpolation-filters="sRGB">
      <feGaussianBlur
         stdDeviation="1.6947276"
         id="feGaussianBlur29" />
    </filter>
    <linearGradient
       id="f"
       x1="170.46001"
       x2="289.66"
       y1="713.63"
       y2="713.63"
       gradientTransform="matrix(0.38718,0,0,0.38718,-57.076,-241.47)"
       gradientUnits="userSpaceOnUse"
       xlink:href="#linearGradient198" />
    <linearGradient
       id="e"
       x1="170.46001"
       x2="289.66"
       y1="704.72998"
       y2="704.72998"
       gradientTransform="matrix(0.38718,0,0,0.38718,-57.076,-241.47)"
       gradientUnits="userSpaceOnUse">
      <stop
         stop-color="#fbfbfc"
         offset="0"
         id="stop33"
         style="stop-color:#4d4d4d;stop-opacity:1" />
      <stop
         stop-color="#ccced2"
         offset=".25424"
         id="stop35"
         style="stop-color:#999999;stop-opacity:1" />
      <stop
         stop-color="#f3f4f5"
         offset=".74364"
         id="stop37"
         style="stop-color:#b3b3b3;stop-opacity:1" />
      <stop
         stop-color="#d6d6db"
         offset="1"
         id="stop39"
         style="stop-color:#e6e6e6;stop-opacity:1" />
    </linearGradient>
    <clipPath
       id="o">
      <path
         d="m 45.102,268 3.7755,30.736 c -5e-6,2.8428 5.3769,5.1475 12.01,5.1475 6.6332,0 12.011,-2.3047 12.011,-5.1475 L 76.6404,268 c -7.94e-4,2.1771 -7.0606,3.9419 -15.769,3.9419 -8.7084,2e-5 -15.768,-1.7648 -15.769,-3.9419 z m 31.538,0 c 0,-0.0854 -0.01476,-0.17017 -0.03617,-0.25425 0.02299,0.0846 0.03506,0.16942 0.03617,0.25425 z"
         color="#000000"
         fill="#ffffff"
         opacity="0.691"
         id="path42" />
    </clipPath>
    <filter
       id="j"
       x="-0.084442155"
       y="-0.1872619"
       width="1.1688843"
       height="1.3745238"
       color-interpolation-filters="sRGB">
      <feGaussianBlur
         stdDeviation="1.0791004"
         id="feGaussianBlur45" />
    </filter>
    <clipPath
       id="m">
      <path
         d="m 45.102,268 3.7755,30.736 c -5e-6,2.8428 5.3769,5.1475 12.01,5.1475 6.6332,0 12.011,-2.3047 12.011,-5.1475 L 76.6404,268 c -7.94e-4,2.1771 -7.0606,3.9419 -15.769,3.9419 -8.7084,2e-5 -15.768,-1.7648 -15.769,-3.9419 z m 31.538,0 c 0,-0.0854 -0.01476,-0.17017 -0.03617,-0.25425 0.02299,0.0846 0.03506,0.16942 0.03617,0.25425 z"
         color="#000000"
         fill="#ffffff"
         opacity="0.691"
         id="path48" />
    </clipPath>
    <filter
       id="h"
       x="-0.36659388"
       y="-0.59061406"
       width="1.7331878"
       height="2.1812281"
       color-interpolation-filters="sRGB">
      <feGaussianBlur
         stdDeviation="1.6947276"
         id="feGaussianBlur51" />
    </filter>
    <clipPath
       id="l">
      <g
         transform="translate(-3.4018,-18.615)"
         id="g60">
        <path
           transform="matrix(0.26458,0,0,0.26458,0,97)"
           d="m 170.46,646.3 14.27,116.17 c -2e-5,10.744 20.322,19.455 45.393,19.455 25.071,0 45.395,-8.7107 45.395,-19.455 L 289.661,646.3 c -0.003,8.2284 -26.686,14.899 -59.6,14.898 -32.914,8e-5 -59.597,-6.67 -59.6,-14.898 z m 119.2,0 c 0,-0.3229 -0.0558,-0.64315 -0.13672,-0.96094 0.0869,0.31986 0.13251,0.64034 0.13672,0.96094 z"
           color="#000000"
           fill="url(#d)"
           opacity="0.915"
           id="path54" />
        <path
           d="m 46.505,302.14 c 7.684,-6.0136 8.7531,-2.8063 14.767,-2.205 6.0136,0.60135 15.903,-4.2763 15.903,-4.2763 l -1.0023,13.631 c 0,0 -28.531,2.0713 -29.667,-7.1495 z"
           clip-path="url(#o)"
           fill="#ffffff"
           fill-rule="evenodd"
           filter="url(#j)"
           opacity="0.729"
           id="path56" />
        <path
           d="m 60.737,305.42 c 6.7486,-6.3476 8.1517,-7.4836 10.758,-1.6704 2.6059,5.8131 -10.758,1.6704 -10.758,1.6704 z"
           clip-path="url(#m)"
           fill="#a4a4a4"
           fill-rule="evenodd"
           filter="url(#h)"
           opacity="0.483"
           id="path58" />
      </g>
    </clipPath>
    <linearGradient
       id="d"
       x1="170.46001"
       x2="289.66"
       y1="713.63"
       y2="713.63"
       gradientUnits="userSpaceOnUse"
       xlink:href="#a" />
    <filter
       id="g"
       x="-0.24030986"
       y="-0.031949434"
       width="1.4806197"
       height="1.0638989"
       color-interpolation-filters="sRGB">
      <feGaussianBlur
         stdDeviation="0.50623594"
         id="feGaussianBlur64" />
    </filter>
    <pattern
       id="b"
       width="500.75668"
       height="171.65068"
       patternTransform="matrix(.26458 0 0 .26458 36.58 237.81)"
       patternUnits="userSpaceOnUse">
      <path
         transform="matrix(15.878 0 0 15.878 -716.12 -4653.4)"
         d="m46.505 302.14c7.684-6.0136 8.7531-2.8063 14.767-2.205 6.0136 0.60135 15.903-4.2763 15.903-4.2763l-1.0023 13.631s-28.531 2.0713-29.667-7.1495z"
         clip-path="url(#p)"
         fill="#fff"
         fill-rule="evenodd"
         filter="url(#k)"
         opacity=".729"
         id="path67" />
    </pattern>
    <pattern
       id="c"
       width="305.31874"
       height="126.84432"
       patternTransform="matrix(.26458 0 0 .26458 85.177 249.67)"
       patternUnits="userSpaceOnUse">
      <path
         transform="matrix(15.878 0 0 15.878 -899.79 -4698.2)"
         d="m60.737 305.42c6.7486-6.3476 8.1517-7.4836 10.758-1.6704 2.6059 5.8131-10.758 1.6704-10.758 1.6704z"
         clip-path="url(#n)"
         fill="#a4a4a4"
         fill-rule="evenodd"
         filter="url(#i)"
         opacity=".483"
         id="path70" />
    </pattern>
    <linearGradient
       inkscape:collect="always"
       xlink:href="#linearGradient885"
       id="linearGradient1154"
       x1="-827.47772"
       y1="312.46976"
       x2="-258.07211"
       y2="716.66718"
       gradientUnits="userSpaceOnUse"
       gradientTransform="translate(-1135.403,14.873855)" />
    <linearGradient
       inkscape:collect="always"
       xlink:href="#linearGradient12505"
       id="linearGradient12115"
       x1="-1672.7762"
       y1="587.25464"
       x2="-1708.7892"
       y2="86.399719"
       gradientUnits="userSpaceOnUse"
       gradientTransform="translate(8.9668605,14.873855)" />
  </defs>
  <g
     inkscape:label="Capa 1"
     id="layer1"
     transform="matrix(0.65038437,0,0,0.52721397,-154.86235,-95.087005)">
    <rect
       style="display:none;fill:#ebf0f5;fill-opacity:1;stroke:none;stroke-width:1.20007"
       id="rect5312"
       width="1080.0001"
       height="1080"
       x="9.2370556e-14"
       y="-2.8421709e-14"
       ry="10.707906" />
    <g
       id="g3608"
       transform="matrix(0.18940835,0,0,0.22666698,621.2788,137.58974)">
      <g
         id="g890"
         transform="matrix(0.76877616,0,0,0.94838157,-466.62971,9.9516046)">
        <path
           id="path1194"
           style="opacity:1;fill:url(#linearGradient12115);fill-opacity:1;stroke-width:11.4152"
           d="m -1944.8202,192.79168 h 161.3976 c 22.5624,0 31.509,10.45251 43.6318,19.94637 l 63.8679,49.63837 33.2693,13.62802 227.0823,0.002 c 25.0214,2.2e-4 52.3477,10.51572 51.6245,42.7471 l -5.05,225.08495 c -0.6415,28.5928 -23.0245,51.62453 -51.6245,51.62453 h -519.084 c -28.6,0 -51.1361,-23.0287 -51.6246,-51.62453 l -5.1148,-299.42226 c -0.4885,-28.59583 23.0245,-51.62453 51.6245,-51.62453 z"
           sodipodi:nodetypes="sccccssssssss" />
        <path
           id="path1156"
           style="fill:#e6e6e6;fill-opacity:1;stroke-width:10.7164"
           d="m -1928.6194,285.43818 h 496.8477 c 26.8491,0 49.8248,21.64946 48.4641,48.46403 l -14.2649,281.09132 c -1.3608,26.81457 -21.615,48.46403 -48.4641,48.46403 h -469.2095 c -26.849,0 -47.188,-21.64529 -48.464,-48.46403 l -13.3733,-281.09132 c -1.2759,-26.81874 21.6149,-48.46403 48.464,-48.46403 z"
           sodipodi:nodetypes="sssssssss" />
        <path
           id="rect872"
           style="fill:url(#linearGradient1154);fill-opacity:1;stroke-width:12.1943"
           d="m -1962.8807,327.34361 h 565.3695 c 30.5519,0 56.6963,24.6352 55.1478,55.14784 l -16.2322,319.85748 c -1.5485,30.51264 -24.5959,55.14784 -55.1478,55.14784 h -533.9196 c -30.5519,0 -53.696,-24.63045 -55.1479,-55.14784 l -15.2177,-319.85748 c -1.4519,-30.51739 24.596,-55.14784 55.1479,-55.14784 z"
           sodipodi:nodetypes="sssssssss" />
      </g>
    </g>
  </g>
  <g
     id="g894"
     transform="matrix(0.95941833,0,0,0.94508728,-7.9563409,-2.2392919)" />
</svg>
