<svg xmlns="http://www.w3.org/2000/svg" viewBox="0 0 140 140">
  <defs>
    <linearGradient id="wps20版图标-a" x1="50%" x2="50%" y1="99.368%" y2="0%">
      <stop offset="0%" stop-color="#FF5100"/>
      <stop offset="100%" stop-color="#FF1522"/>
    </linearGradient>
    <linearGradient id="wps20版图标-b" x1="50%" x2="50%" y1="79.98%" y2="3.092%">
      <stop offset="0%" stop-color="#FD7821" stop-opacity="0"/>
      <stop offset="48.935%" stop-color="#FF5100"/>
      <stop offset="100%" stop-color="#FF9B27"/>
    </linearGradient>
    <linearGradient id="wps20版图标-c" x1="73.634%" x2="46.666%" y1="44.909%" y2="4.566%">
      <stop offset="0%" stop-color="#FD7821" stop-opacity="0"/>
      <stop offset="100%" stop-color="#881000" stop-opacity=".925"/>
    </linearGradient>
  </defs>
  <g fill="none" fill-rule="evenodd">
    <!-- <rect width="140" height="140" fill="#232323" rx="22" opacity="0.5"/> -->
    <path fill="url(#wps20版图标-a)" d="M57.2030529,36.09375 C61.3677357,36.09375 65.1550546,38.5071882 66.9142041,42.2821021 L67.7633817,44.1043306 L61.3431905,57.8794633 L57.5825438,49.8101561 C56.9961414,48.5518989 55.7337268,47.7474594 54.345534,47.7474594 L35.5845835,47.7474594 C34.5984008,47.7474594 33.7989417,48.5469185 33.7989417,49.5331012 C33.7989417,49.7937169 33.8559893,50.0511737 33.9660791,50.2873956 L51.6612183,88.2562016 L73.0874074,42.281817 C74.8466197,38.5070578 78.6338567,36.09375 82.7984257,36.09375 L88.8116438,36.09375 L86.9442412,40.10275 L86.9213071,40.1498173 L83.3804136,47.7474594 L58.1042316,101.98203 C56.5403462,105.08776 54.3900139,106.640625 51.6532347,106.640625 C48.9164554,106.640625 46.7714692,105.08776 45.2182762,101.98203 L19.2464885,46.253478 C17.5801565,42.6779725 19.1278474,38.4286237 22.7033528,36.7622917 C23.6482358,36.3219376 24.6780572,36.09375 25.7205138,36.09375 L57.2030529,36.09375 Z M114.281186,36.09375 C118.225917,36.09375 121.423753,39.2915862 121.423753,43.236317 C121.423753,44.2787736 121.195566,45.308595 120.755211,46.253478 L94.7834236,101.98203 L94.7825287,101.98203 C93.2186433,105.08776 91.068311,106.640625 88.3315317,106.640625 C85.5947524,106.640625 83.4497663,105.08776 81.8965732,101.98203 L72.2378706,81.2568044 L78.6580618,67.4812234 L88.3400341,88.2562016 L106.035541,50.2874087 C106.452134,49.3935368 106.065222,48.3311955 105.17135,47.9146029 C104.935125,47.8045091 104.677663,47.7474594 104.417043,47.7474594 L87.8553499,47.7474594 L91.4478235,40.102827 C92.5593794,37.737483 94.8953344,36.1988777 97.492005,36.0989321 L97.7615166,36.09375 L114.281186,36.09375 Z"/>
    <path fill="url(#wps20版图标-c)" d="M78.6580618,67.4812234 L88.3378706,88.2512234 L88.335556,106.640624 C88.3342147,106.640625 88.3328733,106.640625 88.3315317,106.640625 C85.5947524,106.640625 83.4497663,105.08776 81.8965732,101.98203 L72.2378706,81.2568044 L78.6580618,67.4812234 Z"/>
    <path fill="url(#wps20版图标-b)" d="M121.423753,43.236317 C121.423753,44.2787736 121.195566,45.308595 120.755211,46.253478 L94.7834236,101.98203 L94.7825287,101.98203 C93.2199898,105.085086 91.0720134,106.63795 88.3385996,106.640622 L88.3386257,88.2537286 L88.3400341,88.2562016 L106.035541,50.2874087 C106.307605,49.7036476 106.236974,49.0480342 105.906246,48.5473567 L120.302736,39.3931551 C121.012387,40.5027418 121.423753,41.8214896 121.423753,43.236317 Z"/>
    <path fill="url(#wps20版图标-b)" d="M20.0959552,38.8315028 L34.1946425,48.4120311 C33.9471439,48.7185028 33.7989417,49.1084947 33.7989417,49.5331012 C33.7989417,49.7937169 33.8559893,50.0511737 33.9660791,50.2873956 L51.6612183,88.2562016 L51.6612412,88.2535028 L51.662288,106.640619 C51.659271,106.640623 51.6562532,106.640625 51.6532347,106.640625 C48.9164554,106.640625 46.7714692,105.08776 45.2182762,101.98203 L19.2464885,46.253478 C18.0724422,43.7342868 18.4938942,40.8805878 20.0959552,38.8315028 Z"/>
  </g>
</svg>
